<svg width="28" height="32" viewBox="0 0 28 32" fill="none" xmlns="http://www.w3.org/2000/svg">
<path d="M12.1144 1.03194C12.1695 0.955725 12.2184 0.885863 12.2735 0.809651C12.3286 0.733438 12.3836 0.669927 12.4448 0.606417C12.8731 0.187246 13.4482 -0.0286901 14.0356 0.00306521C14.7208 -0.015988 15.3755 0.295214 15.816 0.835055C15.816 0.841406 15.865 0.898566 15.9445 1.01924C16.073 1.20977 16.2627 1.34314 16.4768 1.4003C16.6359 1.44476 16.8072 1.4257 16.954 1.34314C17.1988 1.20977 17.4557 1.1018 17.7188 1.01924C18.3184 0.796949 18.9792 0.860459 19.5299 1.18436C19.8725 1.33679 20.0316 1.73691 19.9031 2.09257C19.8419 2.25769 19.744 2.41012 19.6217 2.53079C18.7284 3.51521 17.8351 4.49962 16.9357 5.48404C16.7399 5.69362 16.6726 5.99212 16.7521 6.26522C16.795 6.46845 16.9112 6.63993 17.0764 6.7606C17.7188 7.20518 18.349 7.66245 18.967 8.13243C19.7501 8.72308 20.4843 9.37724 21.1757 10.0822C22.6074 11.543 23.7638 13.2704 24.5836 15.1758C24.9446 16.0268 25.2505 16.9096 25.4953 17.8051C25.6115 18.2306 25.7155 18.6816 25.8134 19.1515C26.2356 21.2728 26.4192 23.4321 26.358 25.5915C26.3396 25.7693 26.3763 25.9535 26.4559 26.1123C26.5354 26.2711 26.6578 26.4045 26.8107 26.4997C26.9209 26.5696 26.9759 26.6013 26.9759 26.6013C27.2635 26.8046 27.5205 27.065 27.7162 27.3635C27.8692 27.573 27.9671 27.8144 27.9977 28.0748C28.016 28.3606 27.9243 28.64 27.7468 28.8496C27.5816 29.0592 27.3859 29.2497 27.1656 29.3958C26.9453 29.5355 26.7067 29.6498 26.462 29.7324C25.2995 30.1643 24.1186 30.5199 22.9194 30.8121C20.1723 31.4726 17.3701 31.86 14.5556 31.9807C14.1151 31.9997 13.7664 32.0061 13.5033 31.9934C10.9458 31.8791 8.40057 31.5488 5.89816 31.0026C4.33798 30.6597 2.80227 30.2024 1.30939 29.6308C0.826037 29.4593 0.409988 29.1164 0.14078 28.6591C0.0306497 28.4749 -0.0182972 28.2526 0.00617623 28.0303C0.036768 27.8271 0.110188 27.6302 0.220319 27.4587C0.434462 27.1158 0.709788 26.8236 1.04018 26.595C1.32774 26.3854 1.52965 26.0742 1.59695 25.7185C1.62142 25.5915 1.63366 25.4581 1.62754 25.3248V25.0644C1.62754 24.9818 1.62754 24.8929 1.62142 24.804C1.54189 23.4639 1.56636 22.1175 1.69484 20.7838C1.81721 19.4627 2.06806 18.1544 2.44129 16.8778C2.57589 16.4269 2.72273 15.9887 2.88793 15.5695C4.02594 12.648 5.95934 10.133 8.46176 8.34202C9.22655 7.78312 10.0219 7.26869 10.8479 6.80506C11.0192 6.72249 11.1661 6.60182 11.2884 6.45575C11.3986 6.29062 11.4292 6.08104 11.3741 5.8905C11.3251 5.73808 11.2395 5.59836 11.1294 5.48404C10.2544 4.51232 9.37339 3.54061 8.49235 2.57525C8.34551 2.43552 8.23538 2.26405 8.16195 2.07351C8.09465 1.86393 8.13136 1.62894 8.26597 1.45111C8.38834 1.29868 8.54129 1.17801 8.71873 1.1018C9.06747 0.936672 9.45905 0.86681 9.84451 0.911268C10.2422 0.962076 10.6338 1.08275 10.9948 1.27328C11.1232 1.34949 11.2578 1.39395 11.4047 1.41935C11.5576 1.43206 11.7106 1.39395 11.8391 1.31139C11.9492 1.24787 12.041 1.14626 12.1144 1.03194ZM13.3748 15.4806C13.5522 15.3663 13.748 15.2901 13.956 15.2583C14.7331 15.1377 15.5285 15.2393 16.2566 15.5505C16.385 15.614 16.5258 15.6521 16.6726 15.6457C16.8623 15.614 16.9602 15.4679 16.9602 15.2075C16.9602 14.8392 16.9602 14.4644 16.9602 14.0961C16.9663 14.0008 16.9418 13.8992 16.8929 13.8166C16.8378 13.7468 16.7644 13.696 16.6787 13.6769C16.073 13.4737 15.4367 13.3721 14.8004 13.3657C14.7637 13.3657 14.7331 13.334 14.7331 13.2958C14.7331 13.0037 14.7331 12.7433 14.7392 12.5147C14.7392 12.3305 14.6658 12.2289 14.5189 12.2035C14.2069 12.1717 13.8887 12.1654 13.5706 12.1844C13.387 12.1908 13.2953 12.1908 13.2891 12.1908C13.1729 12.1971 13.0811 12.286 13.0628 12.4003C13.0628 12.4067 13.0628 12.5274 13.0628 12.7687V13.461C13.0628 13.4864 13.0444 13.5054 13.0261 13.5054C12.4509 13.6071 11.9064 13.8674 11.4598 14.2549C10.9152 14.7312 10.5909 15.4235 10.5665 16.1602C10.5236 16.6873 10.6215 17.2081 10.8479 17.6844C11.007 18.002 11.2211 18.2878 11.4842 18.5228C11.7351 18.7705 12.0288 18.9801 12.3469 19.1261C12.9037 19.3802 13.4605 19.6406 14.0111 19.9137C14.213 20.0153 14.4027 20.1423 14.5679 20.2947C14.7392 20.4408 14.8738 20.6313 14.9533 20.8409C15.0879 21.1902 14.9656 21.5903 14.6597 21.7936C14.574 21.8571 14.4822 21.9142 14.3843 21.9524C14.2864 21.9968 14.1885 22.0349 14.0845 22.0667C13.3748 22.2064 12.6406 22.1429 11.9615 21.8888C11.7473 21.8063 11.5454 21.6983 11.3619 21.5649C11.3007 21.5205 11.2334 21.4824 11.16 21.4633C11.0743 21.4443 10.9825 21.4824 10.9336 21.5649C10.8907 21.6539 10.8724 21.7555 10.8785 21.8571C10.8785 22.3461 10.8724 22.8351 10.8602 23.3305C10.854 23.4131 10.903 23.4957 10.9764 23.5274C11.2946 23.6862 11.6311 23.7942 11.9798 23.8513C12.1328 23.8767 12.3102 23.9021 12.506 23.9339C12.6834 23.9593 12.8609 23.972 13.0383 23.9783C13.0872 23.9783 13.1301 24.0228 13.1301 24.0736C13.1301 24.3467 13.1301 24.6262 13.1362 24.9183C13.1362 25.1279 13.2157 25.2549 13.3687 25.293C13.387 25.2994 13.5094 25.2994 13.7358 25.2994H14.1396C14.3782 25.2994 14.5128 25.2994 14.5373 25.293C14.7392 25.2486 14.831 25.0898 14.8065 24.8167C14.7943 24.5182 14.8004 24.226 14.8187 23.9275C14.8187 23.9085 14.8371 23.8894 14.8554 23.8894C15.4061 23.7942 15.9262 23.5719 16.3789 23.2353C16.7338 22.9749 17.0091 22.6129 17.1804 22.2C17.3089 21.8888 17.3762 21.5586 17.3823 21.2283C17.3946 20.8917 17.3701 20.5551 17.315 20.2249C17.2233 19.6596 16.9296 19.1515 16.5013 18.7959C16.3116 18.6307 16.1036 18.4847 15.8895 18.3576C15.4183 18.0846 14.935 17.8496 14.4333 17.64C14.1885 17.5384 13.956 17.4177 13.7235 17.2843C13.5584 17.1891 13.4054 17.0684 13.2708 16.935C13.1301 16.808 13.0261 16.6429 12.9649 16.4587C12.9098 16.2681 12.9282 16.0586 13.0199 15.8807C13.0934 15.7029 13.2218 15.5695 13.3748 15.4806Z" fill="white"/>
</svg>
