<svg width="22" height="26" viewBox="0 0 22 26" fill="none" xmlns="http://www.w3.org/2000/svg">
<path fill-rule="evenodd" clip-rule="evenodd" d="M15.5833 14.8571H6.41667C2.87048 14.8571 0 17.7649 0 21.3571V23.2143C0 23.9518 0.288095 24.6629 0.806667 25.1829C1.32524 25.7082 2.0219 26 2.75 26H19.25C19.9781 26 20.68 25.7082 21.1933 25.1829C21.7067 24.6629 22 23.9518 22 23.2143V21.3571C22 17.7649 19.1295 14.8571 15.5833 14.8571ZM11 0C7.45905 0 4.58333 2.91306 4.58333 6.5C4.58333 10.0869 7.45905 13 11 13C14.541 13 17.4167 10.0869 17.4167 6.5C17.4167 2.91306 14.541 0 11 0Z" fill="#5F01FA"/>
</svg>
