<svg width="63" height="19" viewBox="0 0 63 19" fill="none" xmlns="http://www.w3.org/2000/svg">
<path d="M62.2105 8.49373L53.4384 0.279578C53.2525 0.109095 53.02 0.0161065 52.772 0.0161065L46.0767 0.0161071C46.0767 0.0161071 46.0767 0.0161071 46.0612 0.0161071C45.5343 0.0161071 45.1003 0.450061 45.1003 0.977007C45.1003 1.30247 45.2553 1.58145 45.4878 1.75193L53.4229 9.19116L45.4103 16.7079C45.1158 16.9714 45.0228 17.4053 45.1778 17.7618C45.3173 18.1337 45.6737 18.3662 46.0767 18.3662L52.7875 18.3662C53.0355 18.3662 53.268 18.2732 53.4539 18.1027L62.2105 9.90408C62.412 9.7181 62.5205 9.47013 62.5205 9.19116C62.5205 8.92769 62.412 8.67971 62.2105 8.49373Z" fill="#070E12"/>
<path d="M30.1444 17.7769C30.2838 18.1489 30.6403 18.3813 31.0433 18.3813L37.7386 18.3813C37.9865 18.3813 38.219 18.2884 38.405 18.1179L47.1771 9.90372C47.3786 9.71774 47.4871 9.46977 47.4871 9.1908C47.4871 8.92732 47.3786 8.66385 47.1771 8.47787L38.405 0.263718C38.219 0.0932358 37.9865 0.000246879 37.7386 0.0002469L31.0433 0.000247486C31.0433 0.000247486 31.0433 0.000247486 31.0278 0.000247487C30.5008 0.000247533 30.0669 0.434202 30.0669 0.961147C30.0669 1.28661 30.2218 1.56559 30.4543 1.73607L38.3895 9.1753L30.3768 16.692C30.0979 16.9865 30.0049 17.405 30.1444 17.7769Z" fill="#070E12"/>
<path d="M32.1436 8.49337L23.3715 0.279218C23.1856 0.108735 22.9531 0.0157441 22.7051 0.0157441L16.0098 0.0157447C16.0098 0.0157447 16.0098 0.0157447 15.9943 0.0157447C15.4674 0.0157447 15.0334 0.449701 15.0334 0.976646C15.0334 1.30211 15.1884 1.58108 15.4209 1.75157L23.356 9.1908L15.3434 16.7075C15.0489 16.971 14.9559 17.405 15.1109 17.7614C15.2504 18.1334 15.6069 18.3813 16.0098 18.3813L22.7051 18.3813C22.9531 18.3813 23.1856 18.2884 23.3716 18.1179L32.1436 9.90372C32.3451 9.71774 32.4536 9.46977 32.4536 9.1908C32.4381 8.92732 32.3296 8.67935 32.1436 8.49337Z" fill="#070E12"/>
<path d="M0.0774555 17.7769C0.21694 18.1334 0.573406 18.3813 0.976364 18.3813L7.67167 18.3813C7.91964 18.3813 8.15212 18.2884 8.3381 18.1179L17.1102 9.90372C17.3117 9.71774 17.4202 9.46977 17.4202 9.1908C17.4202 8.92732 17.3117 8.66385 17.1102 8.47787L8.3381 0.263718C8.15212 0.0932358 7.91964 0.000246879 7.67167 0.0002469L0.976363 0.000247486C0.976363 0.000247486 0.976363 0.000247486 0.960863 0.000247487C0.433918 0.000247533 -3.9716e-05 0.434202 -3.96699e-05 0.961147C-3.96414e-05 1.28661 0.154946 1.56559 0.387421 1.73607L8.3226 9.1753L0.309931 16.692C0.0154608 16.9865 -0.07753 17.405 0.0774555 17.7769Z" fill="#070E12"/>
</svg>
