<svg width="78" height="78" viewBox="0 0 78 78" fill="none" xmlns="http://www.w3.org/2000/svg">
<path d="M17.1987 29.8158V22.9363C17.1987 21.669 16.1682 20.6385 14.9009 20.6385C13.6336 20.6385 12.6031 21.669 12.6031 22.9363V29.8158H3.43974C1.5458 29.8158 0 28.2839 0 26.376V3.43974C0 1.5458 1.5458 0 3.43974 0H26.376C28.27 0 29.8158 1.5458 29.8158 3.43974V12.617H48.1703V17.1987H29.8158V26.376C29.8158 28.27 28.27 29.8158 26.376 29.8158H17.1987ZM29.8158 60.7874H22.9363C21.669 60.7874 20.6385 61.8179 20.6385 63.0852C20.6385 64.3524 21.669 65.383 22.9363 65.383H29.8158V74.5603C29.8158 76.4542 28.27 78 26.376 78H3.43974C1.5458 77.9861 0 76.4403 0 74.5463V51.6101C0 49.7161 1.5458 48.1703 3.43974 48.1703H12.617V29.8158H17.1987V48.1703H26.376C28.27 48.1703 29.8158 49.7161 29.8158 51.6101V60.7874ZM48.1703 17.1987H55.0498C56.3171 17.1987 57.3476 16.1682 57.3476 14.9009C57.3476 13.6336 56.3171 12.6031 55.0498 12.6031H48.1703V3.43974C48.1703 1.5458 49.7161 0 51.6101 0H74.5463C76.4403 0 77.9861 1.5458 77.9861 3.43974V26.376C77.9861 28.27 76.4403 29.8158 74.5463 29.8158H65.369V48.1703H60.7874V29.8158H51.6101C49.7161 29.8158 48.1703 28.27 48.1703 26.376V17.1987ZM60.7874 48.1703V55.0498C60.7874 56.3171 61.8179 57.3476 63.0852 57.3476C64.3524 57.3476 65.383 56.3171 65.383 55.0498V48.1703H74.5603C76.4542 48.1703 78 49.7161 78 51.6101V74.5463C78 76.4403 76.4542 77.9861 74.5603 77.9861H51.6101C49.7161 77.9861 48.1703 76.4403 48.1703 74.5463V65.369H29.8158V60.7874H48.1703V51.6101C48.1703 49.7161 49.7161 48.1703 51.6101 48.1703H60.7874Z" fill="#00FFA3"/>
</svg>
