<svg width="83" height="80" viewBox="0 0 83 80" fill="none" xmlns="http://www.w3.org/2000/svg">
<path d="M3.86483 9.00221H6.44473V11.6098C6.44473 11.9566 6.72214 12.2201 7.05503 12.2201C7.40179 12.2201 7.66533 11.9427 7.66533 11.6098V9.00221H10.2452C10.592 9.00221 10.8555 8.7248 10.8555 8.39191C10.8555 8.04515 10.5781 7.78161 10.2452 7.78161H7.6792V5.1601C7.6792 4.81334 7.40179 4.5498 7.0689 4.5498C6.72214 4.5498 6.4586 4.82721 6.4586 5.1601V7.76774H3.8787C3.53194 7.76774 3.2684 8.04515 3.2684 8.37804C3.25453 8.7248 3.53194 9.00221 3.86483 9.00221Z" fill="#00FFA3"/>
<path d="M71.6912 10.3198C72.4679 10.5417 73.6192 11.0271 74.604 12.0813C76.0049 13.5654 76.2962 15.3131 76.3516 16.2147C76.3655 16.5337 76.6429 16.7972 76.9619 16.7972C77.281 16.7972 77.5584 16.5476 77.5722 16.2147C77.6277 15.3131 77.919 13.5654 79.3199 12.0813C80.3186 11.0271 81.456 10.5417 82.2327 10.3198C82.4962 10.2504 82.6765 10.0007 82.6765 9.72333C82.6765 9.44592 82.4962 9.21012 82.2327 9.1269C81.456 8.90497 80.3047 8.41951 79.3199 7.36536C77.919 5.88122 77.6277 4.13355 77.5722 3.23197C77.5584 2.91295 77.281 2.64941 76.9619 2.64941C76.6429 2.64941 76.3655 2.89908 76.3516 3.23197C76.2962 4.13355 75.991 5.88122 74.604 7.36536C73.6053 8.41951 72.4679 8.90497 71.6912 9.1269C71.4276 9.19625 71.2473 9.44592 71.2473 9.72333C71.2473 10.0007 71.4276 10.2365 71.6912 10.3198ZM75.5056 8.21145C76.1991 7.47632 76.6568 6.68571 76.9758 5.95057C77.2948 6.69958 77.7526 7.47632 78.4461 8.21145C79.098 8.8911 79.7915 9.37657 80.4434 9.72333C79.7915 10.0701 79.098 10.5556 78.4461 11.2352C77.7526 11.9703 77.2948 12.761 76.9758 13.4961C76.6568 12.7471 76.1991 11.9703 75.5056 11.2352C74.8536 10.5556 74.1601 10.0701 73.5082 9.72333C74.174 9.37657 74.8675 8.8911 75.5056 8.21145Z" fill="#00FFA3"/>
<path d="M75.3391 52.6938H72.7592V50.0861C72.7592 49.7394 72.4818 49.4758 72.1489 49.4758C71.8022 49.4758 71.5386 49.7532 71.5386 50.0861V52.6938H68.9587C68.612 52.6938 68.3484 52.9712 68.3484 53.3041C68.3484 53.6508 68.6258 53.9144 68.9587 53.9144H71.5386V56.522C71.5386 56.8688 71.816 57.1323 72.1489 57.1323C72.4957 57.1323 72.7592 56.8549 72.7592 56.522V53.9144H75.3391C75.6859 53.9144 75.9494 53.637 75.9494 53.3041C75.9633 52.9712 75.6859 52.6938 75.3391 52.6938Z" fill="#00FFA3"/>
<path d="M51.0936 73.6519C49.554 73.6519 48.3195 74.9002 48.3195 76.4259C48.3195 77.9656 49.5679 79.2 51.0936 79.2C52.6193 79.2 53.8677 77.9517 53.8677 76.4259C53.8677 74.9002 52.6193 73.6519 51.0936 73.6519ZM51.0936 77.9794C50.2336 77.9794 49.5401 77.2859 49.5401 76.4259C49.5401 75.566 50.2336 74.8725 51.0936 74.8725C51.9397 74.8725 52.6332 75.566 52.6332 76.4259C52.6332 77.2859 51.9397 77.9794 51.0936 77.9794Z" fill="#00FFA3"/>
<path d="M20.4122 5.54817C21.9519 5.54817 23.1863 4.29983 23.1863 2.77408C23.1863 1.23447 21.938 0 20.4122 0C18.8726 0 17.6382 1.24834 17.6382 2.77408C17.6382 4.29983 18.8726 5.54817 20.4122 5.54817ZM20.4122 1.2206C21.2722 1.2206 21.9657 1.91412 21.9657 2.77408C21.9657 3.63405 21.2722 4.32757 20.4122 4.32757C19.5523 4.32757 18.8588 3.63405 18.8588 2.77408C18.8588 1.91412 19.5661 1.2206 20.4122 1.2206Z" fill="#00FFA3"/>
<path d="M11.6461 62.9716C10.8694 62.7497 9.71814 62.2642 8.73334 61.2101C7.33243 59.7259 7.04115 57.9783 6.98567 57.0767C6.9718 56.7577 6.69439 56.4941 6.37537 56.4941C6.05635 56.4941 5.77894 56.7438 5.76507 57.0767C5.70959 57.9783 5.40444 59.7259 4.0174 61.2101C3.01873 62.2642 1.88136 62.7497 1.10461 62.9716C0.841074 63.041 0.660759 63.2906 0.660759 63.5681C0.660759 63.8455 0.841074 64.0813 1.10461 64.1645C1.88136 64.3864 3.0326 64.8719 4.0174 65.926C5.41831 67.4102 5.70959 69.144 5.76507 70.0594C5.77894 70.3784 6.05635 70.642 6.37537 70.642C6.69439 70.642 6.9718 70.3923 6.98567 70.0594C7.04115 69.1578 7.33243 67.4102 8.73334 65.926C9.73201 64.8719 10.8694 64.3864 11.6461 64.1645C11.9097 64.0951 12.09 63.8455 12.09 63.5681C12.1039 63.2906 11.9235 63.041 11.6461 62.9716ZM7.83177 65.0799C7.13825 65.8151 6.68052 66.5918 6.3615 67.3408C6.04248 66.5918 5.58476 65.8151 4.89124 65.0799C4.23933 64.4003 3.54581 63.9148 2.8939 63.5681C3.54581 63.2213 4.23933 62.7358 4.89124 62.0562C5.58476 61.321 6.04248 60.5443 6.3615 59.7953C6.68052 60.5443 7.13825 61.321 7.83177 62.0562C8.48368 62.7358 9.1772 63.2213 9.82911 63.5681C9.1772 63.9009 8.48368 64.3864 7.83177 65.0799Z" fill="#00FFA3"/>
<path d="M77.5861 36.0633L68.0294 18.7252C68.0294 18.7114 68.0155 18.7114 68.0155 18.6975V18.6836C65.8656 14.7444 51.7178 12.6777 38.8322 12.6777C25.9604 12.6777 11.8264 14.7444 9.66266 18.6836C9.64879 18.6975 9.64879 18.7114 9.63492 18.7391L0.0782037 36.0633C-0.00501888 36.202 -0.0188893 36.3823 0.022722 36.5349C0.0504628 36.6319 0.105945 36.7152 0.161426 36.7845L38.3744 77.1752C38.3744 77.1752 38.3744 77.1752 38.3883 77.189C38.416 77.2168 38.4438 77.2445 38.4715 77.2584C38.4993 77.2723 38.527 77.3 38.5686 77.3139C38.5686 77.3139 38.5825 77.3139 38.5825 77.3278C38.6102 77.3416 38.6518 77.3555 38.6796 77.3555C38.6935 77.3555 38.6935 77.3555 38.7073 77.3555C38.7489 77.3694 38.7767 77.3694 38.8183 77.3694C38.8599 77.3694 38.8876 77.3694 38.9293 77.3555C38.9431 77.3555 38.9431 77.3555 38.957 77.3555C38.9986 77.3416 39.0263 77.3416 39.0541 77.3278C39.0541 77.3278 39.068 77.3278 39.068 77.3139C39.0957 77.3 39.1373 77.2861 39.165 77.2584C39.1928 77.2307 39.2205 77.2168 39.2483 77.189C39.2483 77.189 39.2483 77.1891 39.2621 77.1752L77.489 36.7845C77.5584 36.7152 77.6 36.6319 77.6277 36.5349C77.6832 36.3823 77.6693 36.2158 77.5861 36.0633ZM1.45138 36.1049L9.67654 21.1942C10.6613 24.6756 11.6323 28.1849 12.5755 31.5692C13.4909 34.8843 14.448 38.2964 15.405 41.6947C10.5781 40.266 5.88991 38.3796 1.45138 36.1049ZM38.2219 74.6924L17.7353 43.6226C24.4347 45.3842 31.3144 46.2996 38.2219 46.3412V74.6924ZM17.6382 40.8763L23.4083 25.8824C27.4862 26.4649 32.1327 26.7978 36.9597 26.8672L17.6382 40.8763ZM38.8322 25.6466C33.2008 25.6466 27.7636 25.2859 23.1031 24.5924C14.5034 23.3163 11.022 21.3467 10.6475 20.0291C10.6197 19.9458 10.6059 19.8626 10.6059 19.7794C10.6059 19.6268 10.6475 19.4742 10.7168 19.3217C10.7307 19.3078 10.7307 19.2939 10.7307 19.2939C12.1455 16.6447 23.0476 13.9122 38.8183 13.9122C54.589 13.9122 65.4911 16.6447 66.9059 19.2939L67.5717 18.9333L66.9198 19.2939C66.9198 19.3078 66.9336 19.3078 66.9336 19.3217C67.0169 19.4742 67.0446 19.6268 67.0446 19.7794C67.0446 19.8626 67.0307 19.9458 67.003 20.0291C66.6285 21.3329 63.1331 23.3163 54.5473 24.5924C49.9008 25.2859 44.4636 25.6466 38.8322 25.6466ZM66.3372 22.4703C65.505 25.4247 64.6866 28.3652 63.896 31.2364C63.036 34.3156 62.1622 37.478 61.2745 40.6544L55.5183 25.7021C58.9443 25.1611 63.7018 24.1486 66.3372 22.4703ZM39.4425 27.4775L59.9429 42.3466C53.2435 44.1358 46.3499 45.0652 39.4425 45.1206V27.4775ZM43.2152 71.2109L61.7461 43.1233C66.0321 41.8888 70.2209 40.3215 74.2295 38.4351L43.2152 71.2109Z" fill="#00FFA3"/>
<path d="M70.1516 66.7446C69.3748 66.5226 68.2236 66.0372 67.2388 64.983C65.8379 63.4989 65.5466 61.7651 65.4911 60.8496C65.4772 60.5306 65.1998 60.2671 64.8808 60.2671C64.5618 60.2671 64.2844 60.5168 64.2705 60.8496C64.215 61.7512 63.9238 63.4989 62.5228 64.983C61.5242 66.0372 60.3868 66.5226 59.61 66.7446C59.3465 66.8139 59.1662 67.0636 59.1662 67.341C59.1662 67.6184 59.3465 67.8542 59.61 67.9374C60.3868 68.1594 61.538 68.6448 62.5228 69.699C63.9238 71.1831 64.215 72.9308 64.2705 73.8324C64.2844 74.1514 64.5618 74.4149 64.8808 74.4149C65.1998 74.4149 65.4772 74.1653 65.4911 73.8324C65.5466 72.9308 65.8517 71.1831 67.2388 69.699C68.2375 68.6448 69.3748 68.1594 70.1516 67.9374C70.4151 67.8681 70.5954 67.6184 70.5954 67.341C70.5954 67.0636 70.4151 66.8139 70.1516 66.7446ZM66.3372 68.8529C65.6437 69.588 65.186 70.3648 64.8669 71.1138C64.5479 70.3648 64.0902 69.588 63.3967 68.8529C62.7448 68.1732 62.0512 67.6878 61.3993 67.341C62.0512 66.9942 62.7448 66.5088 63.3967 65.8291C64.0902 65.094 64.5479 64.3173 64.8669 63.5682C65.186 64.3173 65.6437 65.094 66.3372 65.8291C66.9891 66.5088 67.6826 66.9942 68.3345 67.341C67.6688 67.6739 66.9752 68.1594 66.3372 68.8529Z" fill="#00FFA3"/>
</svg>
