<svg width="91" height="75" viewBox="0 0 91 75" fill="none" xmlns="http://www.w3.org/2000/svg">
<path fill-rule="evenodd" clip-rule="evenodd" d="M77.3361 50.8582L65.7065 37.1702C65.2433 36.6213 65.6378 35.7808 66.3583 35.7808H71.7786V9.55403C71.7786 8.62777 72.5333 7.87305 73.4596 7.87305H82.4991C83.4254 7.87305 84.1801 8.62777 84.1801 9.55403V35.7636H89.6004C90.3208 35.7636 90.7154 36.6041 90.2522 37.153L78.6226 50.841C78.2795 51.2527 77.6792 51.2527 77.3361 50.8582Z" fill="#00FFA3"/>
<path fill-rule="evenodd" clip-rule="evenodd" d="M45.2259 7.71875C35.8433 7.71875 28.2274 15.3175 28.2274 24.7173C28.2274 34.0999 35.8433 41.7158 45.2259 41.7158C54.6085 41.7158 62.2244 34.0999 62.2244 24.7173C62.2073 15.3346 54.6085 7.71875 45.2259 7.71875ZM45.2259 39.1943C37.2327 39.1943 30.7489 32.7105 30.7489 24.7173C30.7489 16.724 37.2327 10.2402 45.2259 10.2402C53.2192 10.2402 59.7029 16.724 59.7029 24.7173C59.7029 32.7105 53.2192 39.1943 45.2259 39.1943Z" fill="#00FFA3"/>
<path fill-rule="evenodd" clip-rule="evenodd" d="M44.1281 73.6373C44.7113 74.3234 45.7577 74.3234 46.3409 73.6373L66.2553 50.1722C67.0615 49.2288 66.3926 47.7879 65.1576 47.7879H55.8778V41.6472C52.7903 43.5855 49.1539 44.7176 45.2431 44.7176C41.3322 44.7176 37.6786 43.6026 34.6083 41.6472V47.7879H25.3286C24.0936 47.7879 23.4246 49.2288 24.2308 50.1722L44.1281 73.6373Z" fill="#00FFA3"/>
<path fill-rule="evenodd" clip-rule="evenodd" d="M34.5911 7.77025C37.6786 5.83198 41.3151 4.69989 45.2259 4.69989C49.1368 4.69989 52.7903 5.81482 55.8607 7.77025V2.89884C55.8607 1.30362 54.5571 0 52.9619 0H37.4728C35.8776 0 34.574 1.30362 34.574 2.89884L34.5911 7.77025Z" fill="#00FFA3"/>
<path fill-rule="evenodd" clip-rule="evenodd" d="M11.8293 50.8582L0.199622 37.153C-0.263506 36.6041 0.131011 35.7636 0.851431 35.7636H6.27174V9.55403C6.27174 8.62777 7.02647 7.87305 7.95272 7.87305H16.9923C17.9185 7.87305 18.6733 8.62777 18.6733 9.55403V35.7636H24.0936C24.814 35.7636 25.2085 36.6041 24.7454 37.153L13.1157 50.841C12.7727 51.2527 12.1552 51.2527 11.8293 50.8582Z" fill="#00FFA3"/>
<path d="M46.7868 32.7104V35.1804H44.1109V32.7962C41.8811 32.6418 39.7713 31.99 38.4848 31.098L39.9256 27.839C41.2979 28.7481 43.2705 29.3827 45.0715 29.3827C46.8897 29.3827 47.6101 28.8682 47.6101 28.1134C47.6101 25.6434 38.7421 27.4445 38.7421 21.6639C38.7421 19.2111 40.5088 17.1356 44.1109 16.7068V14.2539H46.7868V16.6553C48.4335 16.7925 50.063 17.2385 51.3152 17.9761L49.9601 21.2523C48.4678 20.4461 46.9926 20.0516 45.6376 20.0516C43.785 20.0516 43.1161 20.6691 43.1161 21.4581C43.1161 23.8424 51.9498 22.0585 51.9498 27.8047C51.9498 30.1546 50.2688 32.1958 46.7868 32.7104Z" fill="#00FFA3"/>
</svg>
