<svg width="73" height="82" viewBox="0 0 73 82" fill="none" xmlns="http://www.w3.org/2000/svg">
<path d="M72.15 18.0141C72.0103 14.0412 71.6068 11.6512 71.5913 11.5581C71.4671 10.8753 70.8463 10.4097 70.148 10.5028C67.6339 10.8597 65.0266 10.9063 62.3883 10.627C55.653 9.95963 49.3677 7.42998 45.2706 5.41248C40.2113 2.92939 36.8591 0.477348 36.8281 0.446309C36.3315 0.0893657 35.6641 0.120404 35.2141 0.523905C30.729 4.57444 25.5921 7.47654 19.9586 9.15262C10.3677 12.0392 2.45289 10.4562 2.37529 10.4407C2.03387 10.3786 1.67693 10.4407 1.38206 10.6425C1.08719 10.8442 0.900963 11.1546 0.854405 11.5116C-3.55307 41.5569 9.93318 61.0336 22.0227 72.0833C29.2236 78.679 35.3848 81.7518 35.6331 81.876C35.8038 81.9691 36.0056 82.0001 36.1918 82.0001C36.4091 82.0001 36.6419 81.938 36.8436 81.8294C41.7787 78.9118 46.2483 75.6372 50.0971 72.0833C53.651 68.8087 56.8479 65.1772 59.5638 61.3284C59.719 61.1267 59.8742 60.8784 59.9673 60.7232C61.1313 59.0471 62.2331 57.2624 63.3505 55.2604C65.9112 50.6822 67.9287 45.716 69.372 40.486C69.403 40.424 69.4341 40.3464 69.4496 40.2688C71.9792 31.2676 72.3052 23.1976 72.15 18.0141ZM67.0752 39.3687C67.0441 39.4463 67.0131 39.5083 66.9976 39.5859C65.6163 44.6918 63.6454 49.5493 61.1468 54.0189C60.076 55.9588 59.0051 57.6659 57.8567 59.3109C57.7636 59.4661 57.6394 59.6368 57.5153 59.8231C54.877 63.5477 51.8042 67.0395 48.3744 70.1899C44.805 73.4645 40.7079 76.5218 36.1608 79.2532C34.4692 78.322 29.3944 75.3734 23.7453 70.1899C12.2921 59.7299 -0.480253 41.3706 3.19782 13.1566C5.97577 13.5291 12.7267 13.9946 20.6725 11.6202C26.3681 9.92859 31.5671 7.07304 36.1608 3.11562C37.4954 4.03126 40.3354 5.84702 44.1377 7.72485C48.421 9.81995 55.0167 12.4737 62.1245 13.1876C64.53 13.4359 66.9044 13.4359 69.2323 13.2032C69.3565 14.2429 69.5117 15.9345 69.5893 18.1072C69.7445 23.0579 69.4341 30.771 67.0752 39.3687Z" fill="#00FFA3"/>
<path d="M36.0832 22.9648C28.6029 22.9648 22.5193 29.0639 22.5193 36.5442C22.5193 41.6501 25.3438 46.2748 29.891 48.6027C31.7688 49.5804 33.9105 50.1081 36.0832 50.1081C43.579 50.1081 49.6625 44.0245 49.6625 36.5442C49.6625 35.9545 49.6315 35.4734 49.5694 35.0233C48.809 28.1483 43.0048 22.9648 36.0832 22.9648ZM42.2133 33.8904L33.9725 42.007C33.7397 42.2398 33.4138 42.3795 33.0724 42.3795C33.0259 42.3795 32.9948 42.3795 32.9483 42.3795C32.5758 42.3484 32.2344 42.1467 32.0171 41.8208L28.8357 37.1495C28.4322 36.5597 28.5873 35.7682 29.1771 35.3803C29.7668 34.9923 30.5583 35.132 30.9463 35.7217L33.2586 39.1204L40.413 32.0747C40.9097 31.578 41.7167 31.5936 42.2133 32.0902C42.7254 32.5868 42.7099 33.3938 42.2133 33.8904Z" fill="#00FFA3"/>
<path d="M64.0489 17.6728C63.2574 17.6418 62.4815 17.5797 61.7055 17.5021C55.4823 16.8813 48.9176 14.9104 42.2288 11.6203C40.5372 10.7823 38.8301 9.86662 37.1695 8.88891C36.735 8.62508 36.1763 8.65612 35.7728 8.95099C31.5515 12.0083 26.8958 14.3051 21.9296 15.7795C17.5221 17.0986 12.9284 17.7815 8.28814 17.797C7.60529 17.797 7.0466 18.3246 7.01556 19.0075C5.69642 42.6278 16.9789 58.1626 26.694 67.0241C30.1238 70.1745 33.3207 72.4248 35.4003 73.775C35.6176 73.9147 35.8504 73.9768 36.0987 73.9768C36.347 73.9768 36.5953 73.8992 36.7971 73.7595C39.963 71.6644 42.8806 69.3986 45.4568 67.0241C48.6538 64.0755 51.5248 60.8164 53.9924 57.3246L54.3494 56.8124C55.3891 55.3226 56.3669 53.7241 57.3756 51.9239C59.688 47.7802 61.5348 43.2486 62.8229 38.4842L63.304 36.7305C65.1042 29.483 65.368 23.058 65.2904 18.9299C65.2594 18.247 64.7318 17.6883 64.0489 17.6728ZM36.0832 52.6688C33.4914 52.6688 30.9463 52.048 28.7115 50.8841C23.3263 48.1216 19.9586 42.6278 19.9586 36.5598C19.9586 27.6672 27.1906 20.4197 36.0676 20.4197C44.2929 20.4197 51.1834 26.5654 52.0991 34.7285C52.1767 35.2562 52.2077 35.8459 52.2077 36.5598C52.2232 45.4368 44.9912 52.6688 36.0832 52.6688Z" fill="#00FFA3"/>
</svg>
