<svg width="42" height="42" viewBox="0 0 42 42" fill="none" xmlns="http://www.w3.org/2000/svg">
<path d="M41.9916 22.655C41.908 23.3962 41.8411 24.1456 41.7324 24.8867C41.0466 29.6465 39.0896 33.764 35.4265 37.0168C32.3572 39.7426 28.7024 41.2414 24.6295 41.7766C21.1086 42.246 17.6379 41.999 14.2675 40.8131C9.49205 39.1332 5.76204 36.1686 3.11089 31.9194C0.844445 28.296 -0.142418 24.3267 0.0164838 20.0857C0.351014 11.4884 6.20529 3.8052 14.4933 1.12883C19.7538 -0.567569 24.939 -0.361695 30.0155 1.81234C32.0226 2.66877 33.8124 3.87108 35.4265 5.32043C35.485 5.37808 35.5352 5.43572 35.6188 5.52631C33.6953 7.34623 31.7801 9.15793 29.8817 10.9531C29.2042 10.459 28.5853 9.93201 27.8912 9.52026C24.5292 7.49446 20.9246 7.20624 17.2615 8.46619C12.3021 10.1708 9.23279 13.6048 8.31283 18.7434C7.03325 25.8667 11.725 32.6605 18.9509 34.0193C22.798 34.744 26.4444 34.0769 29.5806 31.59C31.5125 30.0583 32.767 28.0654 33.3524 25.6855C33.3859 25.5537 33.4026 25.422 33.4277 25.2326C33.2186 25.2243 33.0513 25.2079 32.8757 25.2079C29.2042 25.2079 25.5328 25.1996 21.8613 25.2161C21.4264 25.2161 21.326 25.0926 21.3344 24.6891C21.3511 22.6221 21.3428 20.5551 21.3428 18.4881C21.3428 18.3399 21.3428 18.1917 21.3428 17.9858C21.5351 17.9858 21.6857 17.9858 21.8362 17.9858C28.2926 17.9858 34.7407 17.994 41.1971 17.9776C41.5902 17.9776 41.6989 18.1176 41.7324 18.4552C41.8076 19.114 41.908 19.781 42 20.4398C41.9916 21.1727 41.9916 21.9139 41.9916 22.655Z" fill="white"/>
</svg>
