<svg width="32" height="43" viewBox="0 0 32 43" fill="none" xmlns="http://www.w3.org/2000/svg">
<path d="M8.49289 12.37C8.49289 7.91088 11.8372 4.24802 15.9248 4.24802C20.0123 4.24802 23.3567 7.91088 23.3567 12.37V14.865H27.6035V12.37C27.6035 5.57514 22.3481 0.0012207 15.9248 0.0012207C9.50151 0.0012207 4.24609 5.57514 4.24609 12.37V14.865H8.49289V12.37Z" fill="#00FFA3"/>
<path d="M31.851 20.0674C31.851 17.7847 29.993 15.9268 27.7104 15.9268H4.14063C1.85797 15.9268 0 17.7847 0 20.0674V21.2353H31.851V20.0674Z" fill="#00FFA3"/>
<path d="M15.3408 32.33C15.5001 32.2238 15.7124 32.1707 15.9247 32.1707C16.1371 32.1707 16.3494 32.2238 16.5087 32.33C17.2519 32.0645 17.8358 31.3744 17.8358 30.5251C17.8358 29.4634 16.9864 28.614 15.9247 28.614C14.863 28.614 14.0137 29.4634 14.0137 30.5251C14.0137 31.3744 14.5976 32.1176 15.3408 32.33Z" fill="#00FFA3"/>
<path d="M4.14063 42.9998H27.7104C29.993 42.9998 31.851 41.1418 31.851 38.8591V22.2966H0V38.8591C0 41.1418 1.85797 42.9998 4.14063 42.9998ZM15.9255 26.5434C18.1551 26.5434 19.9599 28.3483 19.9599 30.5779C19.9599 32.4359 18.6859 33.9753 16.9872 34.4531V37.1604C16.9872 37.7444 16.5094 38.2221 15.9255 38.2221C15.3416 38.2221 14.8638 37.7444 14.8638 37.1604V34.4531C13.1651 33.9753 11.891 32.4359 11.891 30.5779C11.891 28.3483 13.6959 26.5434 15.9255 26.5434Z" fill="#00FFA3"/>
</svg>
