<svg width="33" height="29" viewBox="0 0 33 29" fill="none" xmlns="http://www.w3.org/2000/svg">
<path d="M24.5424 6.10321V8.59714C26.6026 7.83812 26.1689 7.62125 26.1689 5.23576C25.8436 5.56106 25.193 5.88635 24.5424 6.10321ZM24.5424 18.0307V20.5246C26.6026 19.7656 26.1689 19.5487 26.1689 17.1632C25.8436 17.4885 25.193 17.7054 24.5424 18.0307ZM30.6145 23.9944V26.4883C32.6747 25.7293 32.241 25.404 32.3495 23.0185C31.9157 23.3438 31.3736 23.6691 30.6145 23.9944ZM30.6145 27.1389L27.2532 28.0064C22.8075 28.4401 20.9641 28.657 16.41 28.4401L12.5065 28.0064L9.14511 27.1389C6.21746 26.163 6.75962 25.404 6.75962 22.1511L6.43433 22.0426L3.07295 21.2836C0.0368705 20.1993 0.687459 19.4403 0.687459 15.9705C0.687459 14.344 3.50668 13.585 6.75962 13.1513C6.65119 12.3922 6.75962 11.5248 6.75962 10.2236L6.43433 10.1152L3.07295 9.35616C0.0368705 8.27184 0.687459 7.51282 0.687459 4.04302C0.687459 1.00694 11.4222 0.681641 15.651 0.681641C18.1449 0.681641 25.5183 1.33223 26.8194 3.71772V7.62125V7.0791C29.5302 7.51282 32.1326 8.27184 33 9.68145V13.585C32.7832 14.2356 31.9157 14.7777 30.6145 15.3199L27.2532 16.0789H26.8194V19.5487V19.0066C29.5302 19.4403 32.1326 20.1993 33 21.6089V25.404C32.7832 26.0546 31.9157 26.7052 30.6145 27.1389ZM9.14511 26.4883V23.7775C8.49453 23.5607 7.84394 23.2354 7.51864 22.9101V25.1872C7.51864 25.6209 8.16923 26.0546 9.14511 26.4883ZM23.3496 25.1872V27.6811L26.6026 27.3558V24.9703C25.6267 25.0787 24.5424 25.1872 23.3496 25.1872ZM29.964 24.2113L27.2532 24.8619V27.2473L29.964 26.7052V24.2113ZM16.41 27.6811V25.0787L13.1571 24.7534V27.3558L16.41 27.6811ZM22.5906 27.7895V25.2956L17.169 25.1872V27.7895C19.0124 27.8979 20.8557 27.8979 22.5906 27.7895ZM12.5065 27.2473V24.645C11.5306 24.5366 10.6632 24.3197 9.90413 24.1028V26.7052L12.5065 27.2473ZM3.07295 20.5246V17.8138C2.42236 17.5969 1.77177 17.3801 1.44648 17.0548V19.3319C1.44648 19.7656 2.09707 20.1993 3.07295 20.5246ZM17.2775 19.3319V21.8258L20.5304 21.5005V19.0066C19.5545 19.115 18.3618 19.2234 17.2775 19.3319ZM23.7834 18.2475L21.181 18.8981V21.3921L23.7834 20.7415V18.2475ZM10.3379 21.8258V19.2234L7.08492 18.8981V21.5005L10.3379 21.8258ZM16.5185 21.8258V19.3319L11.0969 19.2234V21.8258C12.9402 22.0426 14.6751 21.9342 16.5185 21.8258ZM6.43433 21.3921V18.7897C5.45844 18.5728 4.48256 18.356 3.72354 18.1391V20.7415L6.43433 21.3921ZM30.6145 12.0669V14.5609C32.6747 13.8018 32.241 13.585 32.3495 11.0911C31.9157 11.4164 31.3736 11.7417 30.6145 12.0669ZM9.14511 14.5609V11.8501C8.49453 11.6332 7.84394 11.3079 7.51864 11.0911V13.3681C7.51864 13.8018 8.16923 14.1271 9.14511 14.5609ZM23.3496 13.3681V15.862L26.6026 15.5368V13.0428C25.6267 13.1513 24.5424 13.2597 23.3496 13.3681ZM29.964 12.2838L27.2532 12.9344V15.4283L29.964 14.7777V12.2838ZM16.41 15.862V13.1513L13.1571 12.826V15.5368L16.41 15.862ZM22.5906 15.862V13.3681L17.169 13.2597V15.862C19.0124 15.9705 20.8557 15.9705 22.5906 15.862ZM12.5065 15.4283V12.7175C11.5306 12.6091 10.6632 12.3922 9.90413 12.1754V14.7777L12.5065 15.4283ZM3.07295 8.59714V5.88635C2.42236 5.66949 1.77177 5.45263 1.44648 5.12733V7.40439C1.44648 7.83812 2.09707 8.27184 3.07295 8.59714ZM17.2775 7.40439V9.89832L20.5304 9.57302V7.0791C19.5545 7.29596 18.3618 7.40439 17.2775 7.40439ZM23.7834 6.32008L21.181 6.97067V9.46459L23.7834 8.814V6.32008ZM10.3379 9.89832V7.29596L7.08492 6.97067V9.57302L10.3379 9.89832ZM16.5185 10.0067V7.40439L11.0969 7.29596V10.0067C12.9402 10.1152 14.6751 10.1152 16.5185 10.0067ZM6.43433 9.46459V6.86223C5.45844 6.64537 4.48256 6.42851 3.72354 6.21165V8.814L6.43433 9.46459Z" fill="#00FFA3"/>
</svg>
