<svg width="37" height="35" viewBox="0 0 37 35" fill="none" xmlns="http://www.w3.org/2000/svg">
<path fill-rule="evenodd" clip-rule="evenodd" d="M9.64307 20.6124C9.9074 20.4771 10.3106 20.2606 10.5346 20.0711C10.8706 20.1253 11.2335 20.1884 11.6143 20.2606C11.3455 20.459 11.0901 20.7928 10.8796 21.0544C10.5839 21.4152 10.5077 21.537 11.0812 21.2348C11.4441 21.0409 12.0981 20.6981 12.3849 20.4184C12.8105 20.5087 13.2406 20.6079 13.6617 20.7251C13.2809 20.9687 12.9359 21.3701 12.6313 21.6994C12.2505 22.1098 12.1474 22.2496 12.8463 21.8663C13.3212 21.6092 13.9708 21.2664 14.3874 20.9326C14.6966 21.0273 15.0012 21.1356 15.3014 21.2529C14.7369 21.4829 14.3202 21.9745 13.9126 22.4165C13.5318 22.827 13.4287 22.9668 14.1276 22.5834C14.5666 22.3444 15.5433 21.8347 15.8524 21.4784C16.1212 21.5956 16.3811 21.7174 16.6275 21.8437C16.1839 22.1234 15.7404 22.4165 15.279 22.6556C12.6223 24.0448 11.8965 22.9352 9.87604 21.3611C8.2901 20.1253 7.35825 20.3914 5.57967 20.3327C7.04465 18.5918 12.3849 16.1291 14.7862 17.6942C15.5791 18.2129 16.0809 19.3224 16.4393 20.3688C15.9555 20.1839 15.4582 20.0215 14.9519 19.8862C14.7503 19.2999 14.1903 18.921 13.711 18.5602C13.263 18.2219 13.1106 18.1317 13.4825 18.8173C13.6034 19.0383 13.7782 19.3405 13.9798 19.6697C13.5631 19.5976 13.1465 19.5479 12.7253 19.5164C12.5506 19.0969 12.1295 18.8173 11.7756 18.5557C11.4217 18.2941 11.3007 18.2264 11.5919 18.7586C11.6949 18.9436 11.8428 19.2052 12.013 19.4803C11.6636 19.4713 11.3276 19.4713 11.0095 19.4803C10.7317 19.1691 10.3016 18.921 9.91636 18.7722C9.57587 18.6414 9.45939 18.6188 9.773 18.9932C9.88948 19.1285 10.0597 19.3179 10.2479 19.5164C9.773 19.5434 9.36531 19.584 9.05619 19.6111C8.0885 19.7013 8.0885 19.6968 9.24883 19.8637C9.41011 19.8862 9.59379 19.9133 9.7954 19.9449C9.6834 20.0937 9.57139 20.2561 9.46835 20.4139C9.25779 20.7342 9.20851 20.8379 9.64307 20.6124ZM17.7923 9.83718L18.9705 9.71991C19.1049 10.4686 19.4992 10.8701 20.2697 10.8701C20.776 10.8701 21.439 10.6626 21.439 10.0447C21.439 9.39968 20.4086 9.28241 19.9248 9.16063C18.9705 8.92158 18.0208 8.49761 18.0208 7.34747C18.0208 6.32362 18.8272 5.82749 19.7142 5.7012V5.02916H20.7312V5.70571C21.6944 5.84102 22.4336 6.36873 22.4739 7.50985L21.2643 7.55044C21.1568 6.90095 20.8118 6.67543 20.1757 6.67543C19.8083 6.67543 19.1677 6.78819 19.1677 7.2708C19.1677 7.78949 20.0771 7.95186 20.4534 8.04207C21.6138 8.3172 22.6442 8.66449 22.6442 10.0447C22.6442 11.2354 21.7347 11.7586 20.7267 11.8759V12.5118H19.7097V11.8713C18.63 11.709 17.9401 11.0865 17.7923 9.83718ZM31.0891 19.9088C30.8247 19.7735 30.4215 19.557 30.1975 19.3675C29.8615 19.4217 29.4986 19.4848 29.1178 19.557C29.3866 19.7554 29.642 20.0892 29.8526 20.3508C30.1438 20.7116 30.2244 20.8334 29.6554 20.5312C29.2926 20.3373 28.6385 19.9945 28.3517 19.7148C27.9261 19.805 27.4961 19.9043 27.0749 20.0215C27.4557 20.2651 27.8007 20.6665 28.1053 20.9958C28.4862 21.4062 28.5937 21.546 27.8903 21.1627C27.4154 20.9056 26.7658 20.5628 26.3492 20.229C26.04 20.3237 25.7354 20.432 25.4352 20.5492C25.9997 20.7793 26.4164 21.2709 26.8241 21.7129C27.2049 22.1234 27.3079 22.2632 26.609 21.8798C26.17 21.6407 25.1933 21.1311 24.8887 20.7748C24.6199 20.892 24.36 21.0138 24.1136 21.1401C24.5572 21.4197 25.0007 21.7129 25.4621 21.952C28.1188 23.3411 28.8446 22.2316 30.8651 20.6575C32.451 19.4217 33.3828 19.6923 35.1614 19.6336C33.692 17.8927 28.3562 15.43 25.9549 16.9951C25.162 17.5138 24.6602 18.6233 24.2973 19.6697C24.7812 19.4848 25.2784 19.3224 25.7892 19.1871C25.9908 18.6008 26.5508 18.2219 27.0301 17.8611C27.4781 17.5228 27.6305 17.4371 27.2586 18.1182C27.1377 18.3392 26.9629 18.6414 26.7613 18.9706C27.178 18.8985 27.5946 18.8488 28.0157 18.8173C28.186 18.3978 28.6116 18.1182 28.9655 17.8566C29.3194 17.595 29.4404 17.5273 29.1492 18.0595C29.0462 18.2445 28.8983 18.5061 28.7281 18.7812C29.0775 18.7722 29.4135 18.7722 29.7316 18.7812C30.0094 18.47 30.4395 18.2174 30.8247 18.0731C31.1652 17.9423 31.2817 17.9197 30.9681 18.2941C30.8561 18.4294 30.6814 18.6188 30.4932 18.8173C30.9681 18.8443 31.3758 18.8849 31.6849 18.912C32.6481 19.0022 32.6571 18.9977 31.4923 19.1646C31.331 19.1871 31.1473 19.2142 30.9457 19.2458C31.0577 19.3946 31.1697 19.557 31.2727 19.7148C31.4699 20.026 31.5236 20.1343 31.0891 19.9088ZM20.9149 23.2464C21.6675 22.6466 22.4605 22.0873 23.2624 21.6137C23.8627 21.9835 24.4631 22.385 25.0768 22.7052C28.1143 24.2928 29.082 23.1201 31.3803 21.3295C33.2305 19.8907 34.1176 20.865 35.6363 20.4184C36.1246 20.2741 36.2546 19.8321 36.0261 19.3991C34.8837 17.2387 28.3204 14.4468 25.5024 16.287C24.3511 17.0357 23.7059 18.6594 23.2579 20.1072C22.4605 20.4681 21.672 20.892 20.9149 21.3611V17.41C25.386 17.0537 28.8356 13.2831 28.8356 8.76372C28.8356 3.97374 24.9783 0.090332 20.2205 0.090332C15.4627 0.090332 11.6053 3.97374 11.6053 8.76372C11.6053 13.2831 15.0595 17.0492 19.5261 17.41V21.8888C18.8585 21.4919 18.1686 21.1311 17.4742 20.8108C17.0262 19.3675 16.3811 17.7438 15.2297 16.9906C12.4117 15.1504 5.84847 17.9468 4.70606 20.1072C4.47758 20.5402 4.6075 20.9867 5.09135 21.1266C6.61008 21.5686 7.49713 20.5943 9.34739 22.0377C11.6501 23.8283 12.6133 24.9964 15.6508 23.4133C16.2646 23.0931 16.8604 22.6917 17.4652 22.3218C18.1641 22.7368 18.8541 23.2149 19.5216 23.729V27.0938L19.5171 27.0983C19.2617 25.9075 18.0924 25.2761 16.9456 25.2761H12.0354C8.81427 23.1698 7.21041 23.287 3.68461 23.287V21.8076H0.0244141V23.2013H2.30028V32.7678H0.0244141V34.166H3.68909V32.7136H6.1352C12.9673 35.695 14.0559 35.8619 20.0413 32.6144C23.0743 30.9681 26.7031 28.8753 28.074 28.077C30.9995 26.3766 29.1402 22.7187 26.1789 24.0357C24.9872 24.568 22.7114 25.6144 20.9149 26.4488V23.2464ZM20.2205 2.40414C23.7104 2.40414 26.5373 5.25016 26.5373 8.76372C26.5373 12.2773 23.7104 15.1233 20.2205 15.1233C16.7305 15.1233 13.9036 12.2773 13.9036 8.76372C13.9036 5.25016 16.7305 2.40414 20.2205 2.40414ZM20.2205 1.48403C16.2287 1.48403 12.9941 4.74049 12.9941 8.75921C12.9941 12.7779 16.2287 16.0344 20.2205 16.0344C24.2122 16.0344 27.4468 12.7779 27.4468 8.75921C27.4468 4.74501 24.2122 1.48403 20.2205 1.48403ZM3.68909 31.3154H6.41296C12.9628 34.2472 13.6348 34.5042 19.3827 31.3831C22.4829 29.7007 26.0445 27.6485 27.3841 26.8682C28.7818 26.0564 28.1277 24.6897 26.7345 25.3077C24.6288 26.2458 19.3289 28.7175 18.9213 28.9069C18.4732 29.3083 17.7923 29.5744 16.8425 29.5744H11.4665V28.1807H16.847C18.8451 28.1807 18.3702 26.6698 16.95 26.6698H11.6188C8.50514 24.5093 7.14321 24.6807 3.68909 24.6807V31.3154Z" fill="#00FFA3"/>
</svg>
