<svg width="37" height="28" viewBox="0 0 37 28" fill="none" xmlns="http://www.w3.org/2000/svg">
<path d="M15.0467 2.04392C10.6067 0.54645 6.16667 -0.202283 1.48 0.0472951C0.74 0.0472951 0 0.796028 0 1.79434V24.5059C0 25.2546 0.74 26.0034 1.48 26.0034C6.66 26.0034 12.0867 26.7521 17.02 28V5.538C17.2667 4.04054 16.28 2.79265 15.0467 2.04392ZM14.06 17.7673C13.8133 18.2665 13.32 18.516 12.8267 18.516C12.58 18.516 12.58 18.516 12.3333 18.516C9.86667 17.5177 7.15333 17.0186 4.44 17.0186C3.7 17.0186 3.20667 16.5194 3.20667 15.7707C3.20667 15.022 3.7 14.5228 4.44 14.5228C7.4 14.5228 10.36 15.022 13.32 16.0203C13.8133 16.2698 14.3067 17.0186 14.06 17.7673ZM14.06 12.027C13.8133 12.5262 13.32 12.7758 12.8267 12.7758C12.58 12.7758 12.58 12.7758 12.3333 12.7758C9.86667 11.7774 7.15333 11.5279 4.44 11.5279C3.7 11.5279 3.20667 11.0287 3.20667 10.28C3.20667 9.53125 3.7 9.03209 4.44 9.03209C7.4 9.03209 10.36 9.53125 13.32 10.5296C13.8133 10.7791 14.3067 11.5279 14.06 12.027ZM14.06 6.28674C13.8133 6.78589 13.32 7.03547 12.8267 7.03547C12.58 7.03547 12.58 7.03547 12.3333 7.03547C10.36 6.28674 8.38667 6.03716 6.41333 5.78758C5.67333 5.78758 5.18 5.03885 5.18 4.53969C5.18 3.79096 5.92 3.29181 6.41333 3.29181C8.63333 3.29181 11.1 3.79096 13.32 4.78927C13.8133 5.03885 14.3067 5.78758 14.06 6.28674ZM35.2733 0.0472951C34.78 0.0472951 34.04 0.0472951 33.3 0.0472951C29.3533 0.0472951 25.4067 0.54645 21.7067 2.04392C20.4733 2.79265 19.7333 4.04054 19.7333 5.538V27.7504C24.9133 26.253 30.0933 25.7538 35.52 25.7538C36.26 25.7538 37 25.0051 37 24.2563V1.79434C36.7533 0.796028 36.26 0.0472951 35.2733 0.0472951ZM29.1067 17.2682C27.38 17.5177 25.9 17.7673 24.42 18.516C24.1733 18.516 24.1733 18.516 23.9267 18.516C23.4333 18.516 22.94 18.2665 22.6933 17.7673C22.4467 17.0186 22.6933 16.5194 23.4333 16.0203C25.16 15.2715 26.8867 15.022 28.6133 14.7724C29.3533 14.7724 29.8467 15.022 29.8467 15.7707C30.0933 16.769 29.6 17.2682 29.1067 17.2682ZM32.56 11.5279C29.8467 11.5279 27.1333 12.027 24.6667 12.7758C24.42 12.7758 24.42 12.7758 24.1733 12.7758C23.4333 12.7758 23.1867 12.5262 22.94 12.027C22.6933 11.2783 22.94 10.7791 23.68 10.28C26.64 9.28167 29.6 8.78251 32.56 8.78251C33.3 8.78251 33.7933 9.28167 33.7933 10.0304C33.7933 10.7791 33.3 11.5279 32.56 11.5279ZM32.56 5.78758C29.8467 5.78758 27.1333 6.28674 24.6667 7.03547C24.42 7.03547 24.42 7.03547 24.1733 7.03547C23.4333 7.03547 22.94 6.53632 22.94 5.78758C22.94 5.28843 23.1867 4.78927 23.68 4.53969C26.64 3.54138 29.6 3.04223 32.56 3.04223C33.3 3.04223 33.7933 3.54138 33.7933 4.29012C33.7933 5.28843 33.3 5.78758 32.56 5.78758Z" fill="#00FFA3"/>
</svg>
