<svg width="38" height="38" viewBox="0 0 38 38" fill="none" xmlns="http://www.w3.org/2000/svg">
<path d="M19.382 4.36572C11.1077 4.36572 4.36426 11.1092 4.36426 19.3834C4.36426 27.6577 11.1077 34.4011 19.382 34.4011C27.6562 34.4011 34.3997 27.6577 34.3997 19.3834C34.3583 11.1092 27.6562 4.40709 19.382 4.36572ZM19.382 33.8633C11.3973 33.8633 4.90208 27.3681 4.90208 19.3834C4.90208 11.3988 11.3973 4.90355 19.382 4.90355C27.3666 4.90355 33.8619 11.3988 33.8619 19.3834C33.8619 27.3681 27.3666 33.8633 19.382 33.8633Z" fill="#00FFA3"/>
<path d="M19.3826 0.766113C9.08122 0.766113 0.765625 9.08171 0.765625 19.3831C0.765625 29.6845 9.08122 38.0001 19.3826 38.0001C29.684 38.0001 37.9996 29.6845 37.9996 19.3831C37.9996 9.12308 29.6427 0.766113 19.3826 0.766113ZM19.3826 35.3937C10.5292 35.3937 3.372 28.2365 3.372 19.3831C3.372 10.5297 10.5292 3.37249 19.3826 3.37249C28.236 3.37249 35.3932 10.5297 35.3932 19.3831C35.3519 28.1952 28.1947 35.3524 19.3826 35.3937Z" fill="#00FFA3"/>
<path d="M23.1877 19.6729C22.5671 19.1764 21.9052 18.68 21.2432 18.2663L20.9123 18.0594V12.1847C21.6983 12.433 22.3189 12.9708 22.6912 13.7155C23.1463 14.6256 23.4359 15.6185 23.5186 16.6114H24.0151C24.0151 14.336 24.0565 12.6812 24.1392 11.7296H23.6427C23.6427 11.9779 23.56 12.2261 23.4773 12.433C23.4359 12.5571 23.3118 12.6398 23.1877 12.6398C22.9394 12.5984 22.6912 12.4743 22.443 12.3502C21.9879 12.0606 21.4501 11.8124 20.9123 11.6883V9.04053H20.4985V11.6469C20.1262 11.6055 19.7125 11.5642 19.3402 11.5642C19.1747 11.5642 19.0092 11.5642 18.8437 11.5642V9.04053H18.43V11.6469C17.7267 11.7296 17.0647 11.9365 16.4442 12.2675C15.2444 12.888 14.4997 14.1705 14.5411 15.4944C14.5411 16.1977 14.7066 16.8597 15.0376 17.4802C15.3685 18.0594 15.7822 18.5559 16.3201 18.9696C16.982 19.5074 17.6439 19.9625 18.3472 20.4176L18.43 20.459V26.706C17.7681 26.6232 17.1475 26.3336 16.6097 25.9199C16.1132 25.4649 15.7409 24.8443 15.534 24.1823C15.2444 23.2722 15.0789 22.3207 15.0376 21.3691H14.4997C14.4997 24.3478 14.4584 26.2923 14.417 27.1197H14.9134C14.9548 26.8715 14.9962 26.6232 15.0789 26.4164C15.1203 26.2923 15.2444 26.2095 15.3685 26.2095C15.6995 26.2509 15.9891 26.375 16.2787 26.5405C16.651 26.706 17.0234 26.8715 17.2716 26.9956C17.6439 27.1197 17.9749 27.2024 18.3886 27.2438V29.8502H18.8023V27.3266C19.0506 27.3266 19.2988 27.3679 19.547 27.3679C19.8366 27.3679 20.1676 27.3679 20.4572 27.3266V29.8916H20.8709V27.2852C21.6156 27.1611 22.3189 26.9128 22.9394 26.5819C23.5186 26.2509 24.0151 25.7958 24.3461 25.2166C24.677 24.5961 24.8839 23.9341 24.8425 23.2308C24.8425 22.5689 24.7184 21.9069 24.3874 21.3277C24.0565 20.5831 23.6427 20.0866 23.1877 19.6729ZM18.3886 16.2805C17.9749 15.9495 17.6439 15.5772 17.3543 15.1634C17.1475 14.8325 17.0647 14.4188 17.0647 14.0464C17.0647 13.6327 17.1889 13.2604 17.3957 12.9294C17.6439 12.5984 17.9749 12.3502 18.3472 12.2261V16.2805H18.3886ZM20.4572 26.706C20.1262 26.7474 19.7952 26.7887 19.4643 26.7887C19.2574 26.7887 19.0506 26.7887 18.8023 26.7474V20.7072C19.4643 21.1623 20.0435 21.576 20.4572 21.8656V26.706ZM20.4572 17.7698C19.7539 17.3147 19.216 16.9424 18.8023 16.6114V12.102C19.0919 12.0606 19.3402 12.0192 19.6298 12.0192C19.9193 12.0192 20.1676 12.0606 20.4572 12.102V17.7698ZM20.8709 26.5819V22.1965C21.2019 22.4448 21.4915 22.7344 21.781 23.0653C21.9465 23.2722 22.112 23.5204 22.1948 23.81C22.2775 24.0582 22.3189 24.3065 22.3189 24.5961C22.3602 25.5062 21.781 26.3336 20.8709 26.5819Z" fill="#00FFA3"/>
</svg>
